<svg width="22" height="22" viewBox="0 0 22 22" fill="none" xmlns="http://www.w3.org/2000/svg">
<path fill-rule="evenodd" clip-rule="evenodd" d="M10.7705 1.83334C11.8549 2.39964 13.3734 3.0186 15.1218 3.45565C16.3241 3.75594 17.5532 3.93958 18.7917 4.00392V12.3461C18.5732 13.2627 17.8838 15.6064 15.7016 17.6134C13.8004 19.3619 11.7523 19.9527 10.7708 20.1667C9.78941 19.9527 7.74127 19.3619 5.84003 17.6134C3.65784 15.6064 2.96848 13.263 2.75 12.3461V4.00392C3.98827 3.93967 5.21722 3.75604 6.4193 3.45565C8.16739 3.0186 9.68616 2.39964 10.7705 1.83334ZM15.6009 9.08046C16.0596 8.56449 16.0131 7.7744 15.4971 7.31575C14.9811 6.8571 14.1911 6.90358 13.7324 7.41956L9.77778 11.8685L8.2676 10.1696C7.80895 9.65358 7.01886 9.6071 6.50288 10.0657C5.9869 10.5244 5.94042 11.3145 6.39907 11.8305L8.84352 14.5805C9.08073 14.8473 9.42073 15 9.77778 15C10.1348 15 10.4748 14.8473 10.712 14.5805L15.6009 9.08046Z" fill="#CED9E3"/>
</svg>
